<?xml version="1.0" standalone="no"?>
<!DOCTYPE svg PUBLIC "-//W3C//DTD SVG 20010904//EN"
 "http://www.w3.org/TR/2001/REC-SVG-20010904/DTD/svg10.dtd">
<svg version="1.0" xmlns="http://www.w3.org/2000/svg"
 width="512.000000pt" height="512.000000pt" viewBox="0 0 512.000000 512.000000"
 preserveAspectRatio="xMidYMid meet">

<g transform="translate(0.000000,512.000000) scale(0.100000,-0.100000)"
fill="#000000" stroke="none">
<path d="M4179 5092 c-30 -16 -866 -514 -1859 -1107 -1127 -672 -1821 -1093
-1848 -1119 -66 -63 -95 -125 -100 -221 -3 -63 0 -91 15 -131 29 -75 269 -469
311 -511 59 -58 131 -86 231 -89 48 -2 97 -6 111 -10 40 -9 85 -49 103 -91 9
-21 110 -398 223 -838 156 -607 212 -811 232 -845 37 -61 100 -106 168 -121
102 -23 125 -13 542 231 207 122 393 234 412 249 19 16 48 53 64 84 47 92 44
117 -78 587 -100 382 -108 421 -104 486 5 79 37 150 92 202 17 17 198 129 401
250 390 231 463 285 516 376 44 76 69 167 69 250 0 123 -22 179 -150 391 -58
96 -69 120 -58 130 7 7 261 160 563 340 303 180 563 339 578 354 49 44 70 97
65 161 -3 45 -13 71 -51 134 -26 42 -45 81 -42 86 3 5 31 23 63 41 80 45 102
67 102 103 0 22 -47 109 -161 301 -89 148 -171 281 -183 294 -28 32 -93 61
-137 61 -22 0 -59 -12 -90 -28z m254 -361 c77 -128 135 -237 130 -242 -4 -4
-152 -94 -328 -199 -176 -105 -330 -201 -342 -212 -41 -38 -22 -109 32 -122
31 -8 37 -5 300 152 116 69 213 127 216 128 10 6 89 -132 89 -155 0 -11 -10
-27 -22 -36 -13 -9 -277 -168 -588 -354 -508 -303 -567 -341 -587 -376 -41
-72 -33 -104 63 -266 128 -216 129 -219 129 -324 0 -78 -4 -98 -27 -145 -15
-30 -44 -71 -65 -92 -21 -20 -211 -139 -423 -266 -454 -271 -485 -297 -539
-459 -40 -120 -34 -165 88 -642 64 -249 108 -436 105 -451 -3 -14 -13 -35 -22
-47 -27 -35 -781 -473 -814 -473 -41 0 -85 25 -102 58 -8 16 -107 388 -221
828 -115 448 -217 822 -231 851 -30 62 -88 117 -158 149 -39 18 -73 24 -146
27 -52 2 -103 8 -113 13 -19 11 -3 20 1788 1089 330 197 702 419 827 493 258
155 276 174 227 237 -18 22 -28 26 -58 23 -26 -3 -427 -238 -1456 -853 -781
-466 -1428 -849 -1437 -849 -12 -1 -49 51 -119 169 -85 143 -103 178 -107 221
-6 66 10 113 51 150 17 17 232 150 477 296 1330 793 2508 1497 2835 1694 204
122 379 222 390 221 14 -2 57 -65 158 -236z"/>
<path d="M1772 3414 c-19 -8 -34 -22 -38 -38 -3 -15 9 -95 30 -193 38 -180 50
-203 105 -203 34 0 71 38 71 73 0 36 -58 307 -72 334 -16 32 -57 44 -96 27z"/>
<path d="M1524 3268 c-45 -21 -46 -46 -8 -226 30 -139 40 -171 60 -189 28 -26
42 -28 77 -12 49 22 51 46 12 228 -30 141 -39 169 -61 189 -27 24 -47 26 -80
10z"/>
<path d="M3051 3169 c-12 -5 -163 -93 -334 -196 -346 -207 -380 -235 -436
-353 -35 -72 -36 -79 -36 -185 0 -77 5 -127 18 -168 39 -127 169 -209 283
-178 46 12 785 449 826 488 41 39 61 101 56 171 -4 52 -14 74 -92 207 -49 83
-98 161 -110 174 -40 45 -118 63 -175 40z m147 -277 c81 -136 94 -173 70 -204
-7 -9 -177 -114 -378 -234 -383 -228 -406 -239 -450 -199 -38 35 -63 179 -44
253 8 28 15 28 62 -1 54 -34 105 -49 172 -49 73 0 139 22 210 70 48 32 55 42
58 74 4 44 -24 78 -64 78 -14 0 -55 -16 -90 -36 -80 -45 -140 -49 -203 -13
-23 12 -41 26 -41 30 0 7 598 369 610 369 3 0 42 -62 88 -138z"/>
<path d="M1262 3107 c-13 -13 -22 -36 -22 -53 1 -58 66 -324 85 -344 38 -42
125 -13 125 43 0 12 -16 94 -35 182 -27 126 -39 164 -56 178 -30 24 -71 21
-97 -6z"/>
<path d="M1011 2954 c-12 -15 -21 -31 -21 -36 0 -23 70 -329 80 -347 24 -46
104 -39 124 11 12 27 10 47 -16 167 -40 190 -46 209 -68 221 -35 19 -77 12
-99 -16z"/>
<path d="M2020 2243 c-32 -13 -536 -317 -558 -337 -30 -26 -52 -68 -52 -97 0
-12 81 -338 180 -723 178 -688 182 -702 216 -736 31 -32 39 -35 92 -35 55 1
64 5 317 154 143 85 270 163 282 174 32 29 57 100 49 139 -21 108 -351 1368
-365 1392 -9 16 -28 38 -42 48 -27 20 -93 32 -119 21z m203 -800 c92 -357 170
-657 173 -668 4 -17 -28 -40 -232 -160 -131 -77 -243 -141 -249 -143 -6 -1
-78 260 -179 655 -93 362 -170 661 -170 665 -1 6 470 295 485 297 3 1 81 -290
172 -646z"/>
</g>
</svg>
