<?xml version="1.0" standalone="no"?>
<!DOCTYPE svg PUBLIC "-//W3C//DTD SVG 20010904//EN"
 "http://www.w3.org/TR/2001/REC-SVG-20010904/DTD/svg10.dtd">
<svg version="1.0" xmlns="http://www.w3.org/2000/svg"
 width="512.000000pt" height="512.000000pt" viewBox="0 0 512.000000 512.000000"
 preserveAspectRatio="xMidYMid meet">

<g transform="translate(0.000000,512.000000) scale(0.100000,-0.100000)"
fill="#000000" stroke="none">
<path d="M1634 5105 c-17 -12 -38 -80 -109 -367 -48 -194 -91 -356 -94 -360
-4 -4 -119 109 -256 252 -138 143 -262 264 -276 269 -33 11 -68 -4 -88 -39
-13 -24 -6 -53 87 -380 56 -194 100 -355 99 -357 -2 -1 -163 43 -357 99 -327
93 -356 100 -380 87 -35 -20 -50 -55 -39 -88 5 -14 126 -138 269 -276 143
-137 256 -252 252 -256 -4 -3 -166 -46 -360 -94 -287 -71 -355 -92 -367 -109
-20 -28 -19 -59 5 -88 17 -23 62 -36 375 -114 195 -49 355 -91 354 -94 -1 -3
-120 -119 -265 -259 -251 -242 -264 -256 -264 -291 0 -44 24 -70 65 -70 16 0
181 43 367 96 187 53 341 95 343 93 2 -3 -41 -160 -95 -349 -55 -190 -100
-353 -100 -363 0 -28 45 -67 79 -67 25 0 64 36 287 265 142 146 261 262 265
258 3 -5 44 -161 90 -348 74 -299 87 -343 112 -369 22 -22 33 -27 55 -22 15 4
34 15 43 26 15 17 229 848 229 888 0 51 -89 81 -124 43 -11 -12 -43 -122 -82
-278 -36 -142 -67 -265 -71 -273 -3 -8 -37 109 -75 260 -74 295 -80 310 -140
310 -26 0 -57 -28 -225 -200 -108 -110 -198 -199 -200 -197 -2 3 30 124 72
270 74 257 76 267 60 296 -8 17 -27 34 -41 37 -17 4 -108 -17 -277 -65 -139
-40 -261 -74 -272 -77 -11 -3 73 86 188 198 288 282 291 269 -88 364 -143 35
-267 67 -275 71 -8 3 104 36 250 73 146 37 272 71 282 74 22 10 41 59 33 85
-3 11 -97 108 -207 216 -111 107 -196 195 -189 195 6 0 129 -34 273 -75 230
-66 264 -73 287 -62 14 7 31 24 38 38 11 23 4 57 -62 287 -41 144 -75 267 -75
273 0 7 88 -78 195 -189 108 -110 205 -204 216 -207 26 -8 75 11 85 33 3 10
37 136 74 282 37 146 70 258 73 250 4 -8 36 -132 71 -275 95 -379 82 -376 364
-88 112 115 201 199 198 188 -3 -11 -37 -133 -77 -272 -48 -169 -69 -260 -65
-277 3 -14 20 -33 37 -41 29 -16 39 -14 296 60 146 42 267 74 270 72 2 -2 -87
-92 -197 -200 -172 -168 -200 -199 -200 -225 0 -60 15 -66 310 -140 151 -38
268 -72 260 -75 -8 -4 -131 -35 -273 -71 -156 -39 -266 -71 -278 -82 -39 -35
-8 -124 43 -124 26 0 828 200 865 215 60 25 66 94 11 128 -13 8 -174 52 -358
97 -184 46 -338 86 -343 90 -4 3 112 122 258 264 229 223 265 262 265 287 0
32 -38 79 -64 79 -9 0 -172 -45 -363 -100 -191 -54 -349 -97 -352 -95 -2 3 39
157 93 342 53 186 96 352 96 369 0 40 -27 64 -72 64 -33 0 -51 -17 -289 -264
-140 -145 -256 -264 -259 -265 -3 -1 -45 159 -94 354 -78 313 -91 358 -114
375 -29 24 -60 25 -88 5z"/>
<path d="M1629 3491 c-25 -26 -30 -37 -24 -59 4 -18 122 -143 343 -364 l336
-337 -100 -103 c-56 -57 -110 -119 -120 -138 -26 -50 -25 -152 3 -205 13 -24
469 -486 1130 -1146 967 -966 1114 -1109 1155 -1124 55 -20 125 -17 179 9 20
9 152 134 300 284 282 284 289 293 289 388 -1 90 18 70 -1143 1232 -656 657
-1118 1112 -1142 1125 -53 28 -155 30 -205 3 -19 -10 -81 -64 -138 -120 l-103
-100 -337 336 c-221 221 -346 339 -364 343 -22 6 -33 1 -59 -24z m1231 -656
l85 -85 -215 0 -214 0 69 71 c134 137 151 138 275 14z m382 -382 c82 -81 148
-151 148 -155 0 -5 -31 -8 -70 -8 -57 0 -74 -4 -90 -20 -25 -25 -26 -71 -1
-101 18 -23 25 -24 173 -27 l155 -3 149 -150 149 -149 -575 0 -575 0 -150 150
-149 149 292 3 c285 3 292 4 313 25 27 27 29 75 4 103 -18 19 -30 20 -390 20
l-371 0 -26 28 c-33 34 -43 73 -28 104 7 12 46 58 88 101 l77 77 365 0 365 0
147 -147z m913 -913 l150 -150 -575 0 -575 0 -150 150 -150 150 575 0 575 0
150 -150z m447 -447 c82 -81 148 -151 148 -155 0 -5 -139 -8 -310 -8 -297 0
-311 -1 -330 -20 -25 -25 -26 -71 -1 -101 l19 -24 395 -3 396 -3 25 -30 c46
-54 37 -80 -61 -180 l-87 -89 -365 0 -366 0 -149 149 -148 148 53 5 c41 4 58
11 76 32 28 33 29 56 2 90 -20 26 -22 26 -152 26 l-132 0 -155 155 -155 155
575 0 575 0 147 -147z m-48 -853 c-78 -77 -96 -90 -124 -90 -28 0 -46 13 -124
90 l-91 90 215 0 215 0 -91 -90z"/>
</g>
</svg>
