<svg width="268" height="47" viewBox="0 0 268 47" fill="none" xmlns="http://www.w3.org/2000/svg">
<g clip-path="url(#clip0_655_1945)">
<path d="M30.7127 5.97515C24.4127 8.24954 23.3627 16.1026 28.6127 21.1664C30.1352 22.5825 30.3977 23.0975 30.1352 24.2132C29.8202 25.5435 29.8202 25.5435 31.8677 25.5435C33.7052 25.5435 34.2827 25.801 36.1202 27.4317C37.3277 28.5045 38.4302 29.8348 38.6402 30.4356C39.3752 32.8816 36.9077 35.3277 34.4402 34.5982C33.3377 34.2548 32.7077 33.4824 31.5002 30.9505C30.9752 29.749 30.8177 29.749 28.2977 29.9635C24.7277 30.3068 24.5177 30.4785 24.8852 32.5383C25.4627 35.2848 27.6152 38.1599 29.9777 39.2757C31.8152 40.091 32.7077 40.2198 36.5927 40.0481L41.0552 39.9194L43.1027 38.0741C45.5702 35.7568 46.5152 32.71 45.6752 29.6631C44.9402 27.0025 44.1527 25.7581 41.5802 23.3549C40.1102 22.0246 39.5852 21.2093 39.9002 20.8231C40.5827 19.9219 40.0577 19.5357 38.1152 19.5357C36.1202 19.5357 34.5977 18.377 33.3377 16.0168C32.2352 13.8282 32.3402 12.9271 33.7577 11.5538C35.3327 10.0519 36.9602 10.4381 38.3252 12.7125C39.4802 14.5578 40.7927 14.8152 44.0477 13.9141C45.9377 13.3562 46.0952 12.5838 44.8877 10.1806C43.8902 8.33537 42.2627 6.7905 40.3202 5.97515C38.5352 5.20271 32.8127 5.20271 30.7127 5.97515Z" fill="black"/>
<path d="M103.583 6.10392C102.375 6.27557 102.375 6.3614 102.375 13.442C102.375 17.39 102.165 20.8231 101.955 21.0806C101.745 21.338 101.063 21.7672 100.433 22.0676C98.8579 22.7113 98.9104 23.5266 100.538 24.2561C102.375 25.0715 102.585 26.0585 102.218 32.6671C101.85 40.3914 101.745 40.2198 105.735 40.0481L108.938 39.9194L109.095 32.3667L109.2 24.814L110.513 24.342C112.193 23.6983 112.193 22.84 110.513 21.9388L109.2 21.2522V13.957C109.2 7.21966 109.148 6.66179 108.203 6.23265C107.153 5.80352 105.735 5.76061 103.583 6.10392Z" fill="black"/>
<path d="M50.6103 6.8335C50.4528 7.13389 50.4003 8.33545 50.5053 9.49411C50.6628 11.5539 50.7153 11.5968 52.5003 11.7256C56.9103 11.9831 56.7003 11.7256 56.7003 16.9181C56.7003 21.4239 56.6478 21.5527 55.3878 22.0247C54.6528 22.2822 54.0753 22.883 54.0753 23.3121C54.0753 23.7412 54.6528 24.342 55.3878 24.5995L56.7003 25.1145V32.0664C56.7003 35.9285 56.9103 39.3187 57.1728 39.6191C57.4353 40.0053 58.5378 40.134 60.6903 40.0482L63.7878 39.9195L63.9453 32.5384L64.0503 25.1145L65.6253 24.4708C67.6203 23.6554 67.6203 23.2692 65.6253 22.1105C64.0503 21.2094 64.0503 21.1665 64.0503 17.0039C64.0503 12.1976 64.2078 11.9401 67.7253 11.7256L70.0878 11.5968L70.2453 8.89332L70.4028 6.23272H60.6378C52.8678 6.23272 50.8203 6.36145 50.6103 6.8335Z" fill="black"/>
<path d="M76.0203 6.49014C75.7578 6.66179 75.6003 10.0519 75.6003 13.9999V21.2522L74.2878 21.9388C72.6078 22.84 72.6078 23.6124 74.2878 24.5136C75.5478 25.2002 75.6003 25.2431 75.7053 32.5384L75.8628 39.9194L79.1703 40.0481L82.4253 40.1769V35.1131C82.4253 29.5774 82.6878 28.29 83.7903 27.9467C85.4703 27.4317 86.0478 28.3329 87.7803 34.0403L89.5653 39.9194L92.8728 40.0481C94.7103 40.134 96.4428 40.0052 96.7053 39.7907C97.0203 39.5332 96.4953 37.173 95.3403 33.5683C93.1878 26.9167 93.0828 25.6723 94.5003 23.7412C95.3928 22.4967 95.5503 21.5526 95.5503 16.5318C95.5503 7.52005 94.3953 6.57597 83.2128 6.31849C79.4853 6.23266 76.2303 6.31849 76.0203 6.49014ZM88.3578 13.2275C89.1978 13.9999 89.3028 14.7294 89.1453 17.3042C88.9878 20.0507 88.7778 20.6085 87.7278 21.3381C86.9403 21.853 85.8378 22.1105 84.8403 22.0247C83.4228 21.8959 83.1603 21.6814 82.8453 20.1794C82.2678 17.5617 82.3728 13.5708 83.0028 12.5838C83.4753 11.8972 83.8953 11.7684 85.4703 12.0259C86.5728 12.1547 87.8328 12.7125 88.3578 13.2275Z" fill="black"/>
<path d="M117.915 6.91922C117.758 7.30544 117.6 10.7385 117.6 14.5577V21.5526L116.288 22.0246C114.608 22.6683 114.608 23.6982 116.288 24.3419L117.6 24.814L117.705 32.3667L117.863 39.9193L120.698 40.0481C122.64 40.1339 123.69 40.0052 123.953 39.619C124.215 39.3186 124.425 36.9154 124.425 34.2977C124.425 30.6501 124.583 29.4057 125.16 29.0194C126.21 28.3328 126.893 29.2769 129.413 34.7698C130.515 37.13 131.618 39.3186 131.933 39.576C132.248 39.9193 133.77 40.1339 136.028 40.1339C139.178 40.1339 139.65 40.0481 139.65 39.3615C139.65 38.9323 137.655 34.5552 135.188 29.6202C132.72 24.7281 130.725 20.4368 130.725 20.1364C130.725 19.7931 132.405 16.8321 134.4 13.5278C136.448 10.2235 138.075 7.21961 138.075 6.8763C138.075 6.31844 137.445 6.23261 134.558 6.31844L130.988 6.44717L128.888 9.70856C125.213 15.416 124.425 15.5877 124.425 10.7385C124.425 9.02196 124.268 7.30544 124.11 6.91922C123.638 5.93222 118.388 5.93222 117.915 6.91922Z" fill="black"/>
<path d="M145.268 6.533C145.058 6.66174 144.9 10.0519 144.9 13.9999V21.2093L143.273 22.1533L141.593 23.0974L143.273 24.2132L144.9 25.3289L145.005 32.6241L145.163 39.9193L154.193 40.0481L163.223 40.1339L163.538 38.6749C163.748 37.8595 163.748 36.615 163.538 35.8855L163.17 34.5552H158.393C155.715 34.5552 153.195 34.3836 152.828 34.169C151.778 33.6111 151.463 28.6761 152.355 27.26C152.985 26.3159 153.51 26.1443 156.45 25.9726L159.863 25.758V23.1833V20.6085L156.345 20.3939C154.455 20.2652 152.67 20.0077 152.408 19.836C152.198 19.6215 151.935 18.0766 151.83 16.3172C151.62 13.5707 151.778 13.0558 152.723 12.2833C153.668 11.5109 154.455 11.3822 158.498 11.3822H163.17L163.538 10.0948C163.748 9.36526 163.748 8.20661 163.538 7.52L163.17 6.2326H154.403C149.573 6.2326 145.425 6.36134 145.268 6.533Z" fill="black"/>
<path d="M168 21L172.5 18.4019L172.5 23.5981L168 21Z" fill="black"/>
<path d="M184 21L188.5 18.4019L188.5 23.5981L184 21Z" fill="black"/>
<path d="M196 22L200.5 19.4019L200.5 24.5981L196 22Z" fill="black"/>
<path d="M224 17L219.5 19.5981L219.5 14.4019L224 17Z" fill="black"/>
<path d="M250 29L245.5 31.5981L245.5 26.4019L250 29Z" fill="black"/>
<path d="M234.572 7.32161L230.898 10.9958L229.553 5.97674L234.572 7.32161Z" fill="black"/>
<path d="M182.2 38.528C180.205 38.528 178.475 38.176 177.008 37.472C175.541 36.7387 174.324 35.6973 173.356 34.348C172.417 32.9987 171.713 31.3413 171.244 29.376C170.804 27.4107 170.584 25.1667 170.584 22.644C170.584 20.1507 170.804 17.9213 171.244 15.956C171.713 13.9613 172.417 12.2893 173.356 10.94C174.324 9.59067 175.541 8.564 177.008 7.86C178.475 7.12666 180.205 6.76 182.2 6.76C186.189 6.76 189.123 8.15333 191 10.94C192.877 13.7267 193.816 17.628 193.816 22.644C193.816 27.66 192.877 31.5613 191 34.348C189.123 37.1347 186.189 38.528 182.2 38.528ZM182.2 33.82C183.227 33.82 184.092 33.6293 184.796 33.248C185.5 32.8373 186.057 32.2653 186.468 31.532C186.908 30.7987 187.216 29.904 187.392 28.848C187.597 27.7627 187.7 26.56 187.7 25.24V20.004C187.7 17.364 187.289 15.2813 186.468 13.756C185.676 12.2307 184.253 11.468 182.2 11.468C180.147 11.468 178.709 12.2307 177.888 13.756C177.096 15.2813 176.7 17.364 176.7 20.004V25.284C176.7 27.924 177.096 30.0067 177.888 31.532C178.709 33.0573 180.147 33.82 182.2 33.82ZM199.651 38V7.288H211.311C214.303 7.288 216.591 8.13867 218.175 9.84C219.759 11.5413 220.551 13.8587 220.551 16.792C220.551 19.7253 219.759 22.0427 218.175 23.744C216.591 25.4453 214.303 26.296 211.311 26.296H205.415V38H199.651ZM205.415 21.588H210.123C211.677 21.588 212.792 21.28 213.467 20.664C214.141 20.0187 214.479 19.0067 214.479 17.628V15.956C214.479 14.5773 214.141 13.58 213.467 12.964C212.792 12.3187 211.677 11.996 210.123 11.996H205.415V21.588ZM236.11 38.528C233.47 38.528 231.211 38.0733 229.334 37.164C227.486 36.2547 225.975 35.052 224.802 33.556L228.278 29.948C229.422 31.268 230.654 32.2507 231.974 32.896C233.323 33.512 234.76 33.82 236.286 33.82C238.046 33.82 239.395 33.424 240.334 32.632C241.272 31.84 241.742 30.696 241.742 29.2C241.742 27.968 241.39 27.044 240.686 26.428C239.982 25.7827 238.794 25.328 237.122 25.064L233.866 24.536C231.02 24.0373 228.996 23.0107 227.794 21.456C226.591 19.872 225.99 18.0093 225.99 15.868C225.99 12.9347 226.943 10.6907 228.85 9.136C230.756 7.552 233.396 6.76 236.77 6.76C239.175 6.76 241.243 7.14133 242.974 7.904C244.734 8.66666 246.142 9.708 247.198 11.028L243.81 14.636C242.988 13.668 242.006 12.9053 240.862 12.348C239.718 11.7613 238.368 11.468 236.814 11.468C233.47 11.468 231.798 12.8467 231.798 15.604C231.798 16.7773 232.15 17.672 232.854 18.288C233.558 18.904 234.76 19.3587 236.462 19.652L239.674 20.224C242.343 20.7227 244.323 21.7053 245.614 23.172C246.904 24.6387 247.55 26.516 247.55 28.804C247.55 30.2413 247.3 31.5613 246.802 32.764C246.303 33.9373 245.57 34.964 244.602 35.844C243.634 36.6947 242.431 37.3547 240.994 37.824C239.586 38.2933 237.958 38.528 236.11 38.528Z" fill="black"/>
</g>
<defs>
<clipPath id="clip0_655_1945">
<rect width="268" height="47" fill="white"/>
</clipPath>
</defs>
</svg>
