<svg width="75" height="58" viewBox="0 0 75 58" fill="none" xmlns="http://www.w3.org/2000/svg">
<g clip-path="url(#clip0_764_1950)">
<mask id="mask0_764_1950" style="mask-type:luminance" maskUnits="userSpaceOnUse" x="0" y="0" width="75" height="58">
<path d="M75 0H0V58H75V0Z" fill="white"/>
</mask>
<g mask="url(#mask0_764_1950)">
<path d="M13.6177 7.70128C5.60921 10.6327 4.27446 20.7544 10.9482 27.2811C12.8835 29.1063 13.2172 29.7701 12.8835 31.2081C12.4832 32.9227 12.4832 32.9227 15.0859 32.9227C17.4217 32.9227 18.1558 33.2546 20.4916 35.3564C22.0266 36.7391 23.428 38.4537 23.695 39.2281C24.6293 42.3807 21.4927 45.5335 18.356 44.5932C16.9545 44.1506 16.1537 43.1551 14.6187 39.8917C13.9513 38.3431 13.7511 38.3431 10.5478 38.6196C6.00963 39.0621 5.74269 39.2834 6.20985 41.9382C6.94396 45.4782 9.68019 49.1838 12.6834 50.622C15.0191 51.6728 16.1537 51.8388 21.0922 51.6175L26.7649 51.4516L29.3677 49.0733C32.5043 46.0865 33.7056 42.1595 32.6378 38.2325C31.7035 34.8032 30.7024 33.1993 27.4323 30.1018C25.5636 28.3872 24.8963 27.3364 25.2967 26.8386C26.1643 25.6771 25.4969 25.1793 23.0276 25.1793C20.4916 25.1793 18.5562 23.6859 16.9545 20.6439C15.553 17.823 15.6865 16.6616 17.4884 14.8915C19.4905 12.9558 21.5594 13.4535 23.2946 16.385C24.7628 18.7634 26.4312 19.0951 30.5689 17.9337C32.9715 17.2146 33.1717 16.2191 31.6367 13.1216C30.3687 10.7433 28.2999 8.75218 25.8306 7.70128C23.5615 6.70569 16.2872 6.70569 13.6177 7.70128Z" fill="black"/>
<path d="M59.7456 30.9333L65.4659 27.5846V34.2819L59.7456 30.9333Z" fill="black"/>
<path d="M35.5933 30.9333L41.3136 27.5846V34.2819L35.5933 30.9333Z" fill="black"/>
<path d="M56.4405 52.298C53.6744 52.298 51.2744 51.803 49.2405 50.8132C47.2066 49.7821 45.5185 48.3179 44.1761 46.4206C42.8744 44.5234 41.8981 42.1931 41.2473 39.4297C40.6371 36.6663 40.332 33.5111 40.332 29.9641C40.332 26.4583 40.6371 23.3238 41.2473 20.5604C41.8981 17.7558 42.8744 15.4048 44.1761 13.5076C45.5185 11.6103 47.2066 10.1668 49.2405 9.17692C51.2744 8.1458 53.6744 7.63025 56.4405 7.63025C61.9727 7.63025 66.0405 9.58936 68.6439 13.5076C71.2473 17.4258 72.549 22.9113 72.549 29.9641C72.549 37.0169 71.2473 42.5024 68.6439 46.4206C66.0405 50.3389 61.9727 52.298 56.4405 52.298ZM56.4405 45.6782C57.8642 45.6782 59.0642 45.4102 60.0405 44.874C61.0168 44.2966 61.7897 43.4923 62.3591 42.4612C62.9693 41.4301 63.3964 40.1721 63.6405 38.6873C63.9252 37.1613 64.0676 35.4702 64.0676 33.6142V26.2521C64.0676 22.5401 63.4981 19.6118 62.3591 17.467C61.2608 15.3223 59.288 14.25 56.4405 14.25C53.593 14.25 51.5998 15.3223 50.4608 17.467C49.3625 19.6118 48.8134 22.5401 48.8134 26.2521V33.6761C48.8134 37.3881 49.3625 40.3165 50.4608 42.4612C51.5998 44.6059 53.593 45.6782 56.4405 45.6782Z" fill="black"/>
</g>
</g>
<defs>
<clipPath id="clip0_764_1950">
<rect width="75" height="58" fill="white"/>
</clipPath>
</defs>
</svg>
